<svg width="190" height="40" viewBox="0 0 190 40" fill="none" xmlns="http://www.w3.org/2000/svg">
<g clip-path="url(#clip0_1_3725)">
<path d="M33.7512 11.25H6.25122C5.56086 11.25 5.00122 11.8096 5.00122 12.5V32.5C5.00122 33.1904 5.56086 33.75 6.25122 33.75H33.7512C34.4416 33.75 35.0012 33.1904 35.0012 32.5V12.5C35.0012 11.8096 34.4416 11.25 33.7512 11.25Z" stroke="#0A65CC" stroke-width="2.5" stroke-linecap="round" stroke-linejoin="round"/>
<path d="M26.25 11.25V8.75C26.25 8.08696 25.9866 7.45107 25.5178 6.98223C25.0489 6.51339 24.413 6.25 23.75 6.25H16.25C15.587 6.25 14.9511 6.51339 14.4822 6.98223C14.0134 7.45107 13.75 8.08696 13.75 8.75V11.25" stroke="#0A65CC" stroke-width="2.5" stroke-linecap="round" stroke-linejoin="round"/>
<path d="M35.0012 19.7358C30.4423 22.3734 25.2669 23.7583 20 23.75C14.7339 23.7583 9.55935 22.3739 5.00098 19.7372" stroke="#0A65CC" stroke-width="2.5" stroke-linecap="round" stroke-linejoin="round"/>
<path d="M18.125 18.75H21.875" stroke="#0A65CC" stroke-width="2.5" stroke-linecap="round" stroke-linejoin="round"/>
</g>
<path d="M59.2074 16.3438C59.1278 15.5994 58.7926 15.0199 58.2017 14.6051C57.6165 14.1903 56.8551 13.983 55.9176 13.983C55.2585 13.983 54.6932 14.0824 54.2216 14.2812C53.75 14.4801 53.3892 14.75 53.1392 15.0909C52.8892 15.4318 52.7614 15.821 52.7557 16.2585C52.7557 16.6222 52.8381 16.9375 53.0028 17.2045C53.1733 17.4716 53.4034 17.6989 53.6932 17.8864C53.983 18.0682 54.304 18.2216 54.6562 18.3466C55.0085 18.4716 55.3636 18.5767 55.7216 18.6619L57.358 19.071C58.017 19.2244 58.6506 19.4318 59.2585 19.6932C59.8722 19.9545 60.4205 20.2841 60.9034 20.6818C61.392 21.0795 61.7784 21.5597 62.0625 22.1222C62.3466 22.6847 62.4886 23.3437 62.4886 24.0994C62.4886 25.1222 62.2273 26.0227 61.7045 26.8011C61.1818 27.5739 60.4261 28.179 59.4375 28.6165C58.4545 29.0483 57.2642 29.2642 55.8665 29.2642C54.5085 29.2642 53.3295 29.054 52.3295 28.6335C51.3352 28.2131 50.5568 27.5994 49.9943 26.7926C49.4375 25.9858 49.1364 25.0028 49.0909 23.8438H52.2017C52.2472 24.4517 52.4347 24.9574 52.7642 25.3608C53.0938 25.7642 53.5227 26.0653 54.0511 26.2642C54.5852 26.4631 55.1818 26.5625 55.8409 26.5625C56.5284 26.5625 57.1307 26.4602 57.6477 26.2557C58.1705 26.0455 58.5795 25.7557 58.875 25.3864C59.1705 25.0114 59.321 24.5739 59.3267 24.0739C59.321 23.6193 59.1875 23.2443 58.9261 22.9489C58.6648 22.6477 58.2983 22.3977 57.8267 22.1989C57.3608 21.9943 56.8153 21.8125 56.1903 21.6534L54.2045 21.142C52.767 20.7727 51.6307 20.2131 50.7955 19.4631C49.9659 18.7074 49.5511 17.7045 49.5511 16.4545C49.5511 15.4261 49.8295 14.5256 50.3864 13.7528C50.9489 12.9801 51.7131 12.3807 52.679 11.9545C53.6449 11.5227 54.7386 11.3068 55.9602 11.3068C57.1989 11.3068 58.2841 11.5227 59.2159 11.9545C60.1534 12.3807 60.8892 12.9744 61.4233 13.7358C61.9574 14.4915 62.233 15.3608 62.25 16.3438H59.2074ZM70.9666 29.2557C69.6541 29.2557 68.5206 28.983 67.5661 28.4375C66.6172 27.8864 65.8871 27.108 65.3757 26.1023C64.8643 25.0909 64.6087 23.9006 64.6087 22.5312C64.6087 21.1847 64.8643 20.0028 65.3757 18.9858C65.8928 17.9631 66.6143 17.1676 67.5405 16.5994C68.4666 16.0256 69.5547 15.7386 70.8047 15.7386C71.6115 15.7386 72.3729 15.8693 73.0888 16.1307C73.8104 16.3864 74.4467 16.7841 74.9979 17.3239C75.5547 17.8636 75.9922 18.5511 76.3104 19.3864C76.6286 20.2159 76.7876 21.2045 76.7876 22.3523V23.2983H66.0575V21.2188H73.8303C73.8246 20.6278 73.6967 20.1023 73.4467 19.642C73.1967 19.1761 72.8473 18.8097 72.3984 18.5426C71.9553 18.2756 71.4382 18.142 70.8473 18.142C70.2166 18.142 69.6626 18.2955 69.1854 18.6023C68.7081 18.9034 68.3359 19.3011 68.0689 19.7955C67.8075 20.2841 67.674 20.821 67.6683 21.4062V23.2216C67.6683 23.983 67.8075 24.6364 68.0859 25.1818C68.3643 25.7216 68.7536 26.1364 69.2536 26.4261C69.7536 26.7102 70.3388 26.8523 71.0092 26.8523C71.4581 26.8523 71.8643 26.7898 72.228 26.6648C72.5916 26.5341 72.907 26.3438 73.174 26.0938C73.4411 25.8438 73.6428 25.5341 73.7791 25.1648L76.6598 25.4886C76.478 26.25 76.1314 26.9148 75.62 27.483C75.1143 28.0455 74.4666 28.483 73.6768 28.7955C72.8871 29.1023 71.9837 29.2557 70.9666 29.2557ZM79.3977 29V15.9091H82.3892V18.0909H82.5256C82.7642 17.3352 83.1733 16.7528 83.7528 16.3438C84.3381 15.929 85.0057 15.7216 85.7557 15.7216C85.9261 15.7216 86.1165 15.7301 86.3267 15.7472C86.5426 15.7585 86.7216 15.7784 86.8636 15.8068V18.6449C86.733 18.5994 86.5256 18.5597 86.2415 18.5256C85.9631 18.4858 85.6932 18.4659 85.4318 18.4659C84.8693 18.4659 84.3636 18.5881 83.9148 18.8324C83.4716 19.071 83.1222 19.4034 82.8665 19.8295C82.6108 20.2557 82.483 20.7472 82.483 21.304V29H79.3977ZM101.005 15.9091L96.343 29H92.9339L88.272 15.9091H91.5618L94.5703 25.6335H94.7067L97.7237 15.9091H101.005ZM103.14 29V15.9091H106.225V29H103.14ZM104.691 14.0511C104.202 14.0511 103.782 13.8892 103.43 13.5653C103.077 13.2358 102.901 12.8409 102.901 12.3807C102.901 11.9148 103.077 11.5199 103.43 11.196C103.782 10.8665 104.202 10.7017 104.691 10.7017C105.185 10.7017 105.606 10.8665 105.952 11.196C106.305 11.5199 106.481 11.9148 106.481 12.3807C106.481 12.8409 106.305 13.2358 105.952 13.5653C105.606 13.8892 105.185 14.0511 104.691 14.0511ZM115.108 29.2557C113.801 29.2557 112.679 28.9688 111.741 28.3949C110.81 27.821 110.091 27.0284 109.585 26.017C109.085 25 108.835 23.8295 108.835 22.5057C108.835 21.1761 109.091 20.0028 109.602 18.9858C110.114 17.9631 110.835 17.1676 111.767 16.5994C112.705 16.0256 113.813 15.7386 115.091 15.7386C116.153 15.7386 117.094 15.9347 117.912 16.3267C118.736 16.7131 119.392 17.2614 119.881 17.9716C120.369 18.6761 120.648 19.5 120.716 20.4432H117.767C117.648 19.8125 117.364 19.2869 116.915 18.8665C116.472 18.4403 115.878 18.2273 115.134 18.2273C114.503 18.2273 113.949 18.3977 113.472 18.7386C112.994 19.0739 112.622 19.5568 112.355 20.1875C112.094 20.8182 111.963 21.5739 111.963 22.4545C111.963 23.3466 112.094 24.1136 112.355 24.7557C112.616 25.392 112.983 25.8835 113.455 26.2301C113.932 26.571 114.491 26.7415 115.134 26.7415C115.588 26.7415 115.994 26.6562 116.352 26.4858C116.716 26.3097 117.02 26.0568 117.264 25.7273C117.509 25.3977 117.676 24.9972 117.767 24.5256H120.716C120.642 25.4517 120.369 26.2727 119.898 26.9886C119.426 27.6989 118.784 28.2557 117.972 28.6591C117.159 29.0568 116.205 29.2557 115.108 29.2557ZM123.249 29V15.9091H126.335V29H123.249ZM124.8 14.0511C124.312 14.0511 123.891 13.8892 123.539 13.5653C123.187 13.2358 123.011 12.8409 123.011 12.3807C123.011 11.9148 123.187 11.5199 123.539 11.196C123.891 10.8665 124.312 10.7017 124.8 10.7017C125.295 10.7017 125.715 10.8665 126.062 11.196C126.414 11.5199 126.59 11.9148 126.59 12.3807C126.59 12.8409 126.414 13.2358 126.062 13.5653C125.715 13.8892 125.295 14.0511 124.8 14.0511ZM135.217 29.2557C133.939 29.2557 132.831 28.9744 131.893 28.4119C130.956 27.8494 130.229 27.0625 129.712 26.0511C129.2 25.0398 128.945 23.858 128.945 22.5057C128.945 21.1534 129.2 19.9687 129.712 18.9517C130.229 17.9347 130.956 17.1449 131.893 16.5824C132.831 16.0199 133.939 15.7386 135.217 15.7386C136.496 15.7386 137.604 16.0199 138.541 16.5824C139.479 17.1449 140.203 17.9347 140.714 18.9517C141.232 19.9687 141.49 21.1534 141.49 22.5057C141.49 23.858 141.232 25.0398 140.714 26.0511C140.203 27.0625 139.479 27.8494 138.541 28.4119C137.604 28.9744 136.496 29.2557 135.217 29.2557ZM135.234 26.7841C135.928 26.7841 136.507 26.5937 136.973 26.2131C137.439 25.8267 137.786 25.3097 138.013 24.6619C138.246 24.0142 138.362 23.2926 138.362 22.4972C138.362 21.696 138.246 20.9716 138.013 20.3239C137.786 19.6705 137.439 19.1506 136.973 18.7642C136.507 18.3778 135.928 18.1847 135.234 18.1847C134.524 18.1847 133.933 18.3778 133.462 18.7642C132.996 19.1506 132.646 19.6705 132.413 20.3239C132.186 20.9716 132.072 21.696 132.072 22.4972C132.072 23.2926 132.186 24.0142 132.413 24.6619C132.646 25.3097 132.996 25.8267 133.462 26.2131C133.933 26.5937 134.524 26.7841 135.234 26.7841ZM154.455 19.3693L151.643 19.6761C151.563 19.392 151.424 19.125 151.225 18.875C151.032 18.625 150.771 18.4233 150.441 18.2699C150.112 18.1165 149.708 18.0398 149.231 18.0398C148.589 18.0398 148.049 18.179 147.612 18.4574C147.18 18.7358 146.967 19.0966 146.972 19.5398C146.967 19.9205 147.106 20.2301 147.39 20.4688C147.68 20.7074 148.157 20.9034 148.822 21.0568L151.055 21.5341C152.293 21.8011 153.214 22.2244 153.816 22.804C154.424 23.3835 154.731 24.142 154.737 25.0795C154.731 25.9034 154.489 26.6307 154.012 27.2614C153.54 27.8864 152.884 28.375 152.043 28.7273C151.202 29.0795 150.237 29.2557 149.146 29.2557C147.543 29.2557 146.254 28.9205 145.276 28.25C144.299 27.5739 143.717 26.6335 143.529 25.429L146.538 25.1392C146.674 25.7301 146.964 26.1761 147.407 26.4773C147.85 26.7784 148.427 26.929 149.137 26.929C149.87 26.929 150.458 26.7784 150.901 26.4773C151.35 26.1761 151.575 25.804 151.575 25.3608C151.575 24.9858 151.43 24.6761 151.14 24.4318C150.856 24.1875 150.413 24 149.81 23.8693L147.577 23.4006C146.322 23.1392 145.393 22.6989 144.79 22.0795C144.188 21.4545 143.89 20.6648 143.896 19.7102C143.89 18.9034 144.109 18.2045 144.552 17.6136C145.001 17.017 145.623 16.5568 146.418 16.233C147.219 15.9034 148.143 15.7386 149.188 15.7386C150.722 15.7386 151.93 16.0653 152.81 16.7188C153.697 17.3722 154.245 18.2557 154.455 19.3693ZM154.442 11.5455H158.013L162.283 19.267H162.454L166.724 11.5455H170.295L163.945 22.4886V29H160.792V22.4886L154.442 11.5455ZM173.915 29.2642C173.085 29.2642 172.338 29.1165 171.673 28.821C171.014 28.5199 170.491 28.0767 170.105 27.4915C169.724 26.9062 169.534 26.1847 169.534 25.3267C169.534 24.5881 169.67 23.9773 169.943 23.4943C170.216 23.0114 170.588 22.625 171.06 22.3352C171.531 22.0455 172.063 21.8267 172.653 21.679C173.25 21.5256 173.866 21.4148 174.503 21.3466C175.27 21.267 175.892 21.196 176.369 21.1335C176.847 21.0653 177.193 20.9631 177.409 20.8267C177.631 20.6847 177.741 20.4659 177.741 20.1705V20.1193C177.741 19.4773 177.551 18.9801 177.17 18.6278C176.79 18.2756 176.241 18.0994 175.526 18.0994C174.77 18.0994 174.17 18.2642 173.727 18.5938C173.29 18.9233 172.994 19.3125 172.841 19.7614L169.96 19.3523C170.188 18.5568 170.563 17.892 171.085 17.358C171.608 16.8182 172.247 16.4148 173.003 16.1477C173.759 15.875 174.594 15.7386 175.509 15.7386C176.139 15.7386 176.767 15.8125 177.392 15.9602C178.017 16.108 178.588 16.3523 179.105 16.6932C179.622 17.0284 180.037 17.4858 180.349 18.0653C180.668 18.6449 180.827 19.3693 180.827 20.2386V29H177.861V27.2017H177.759C177.571 27.5653 177.307 27.9062 176.966 28.2244C176.631 28.5369 176.207 28.7898 175.696 28.983C175.19 29.1705 174.597 29.2642 173.915 29.2642ZM174.716 26.9972C175.335 26.9972 175.872 26.875 176.327 26.6307C176.781 26.3807 177.131 26.0511 177.375 25.642C177.625 25.233 177.75 24.7869 177.75 24.304V22.7614C177.653 22.8409 177.489 22.9148 177.256 22.983C177.028 23.0511 176.773 23.1108 176.489 23.1619C176.205 23.2131 175.923 23.2585 175.645 23.2983C175.366 23.3381 175.125 23.3722 174.92 23.4006C174.46 23.4631 174.048 23.5653 173.685 23.7074C173.321 23.8494 173.034 24.0483 172.824 24.304C172.614 24.554 172.509 24.8778 172.509 25.2756C172.509 25.8438 172.716 26.2727 173.131 26.5625C173.545 26.8523 174.074 26.9972 174.716 26.9972ZM187.705 11.5455L187.423 23.8693H184.679L184.406 11.5455H187.705ZM186.051 29.1875C185.534 29.1875 185.091 29.0057 184.722 28.642C184.358 28.2784 184.176 27.8352 184.176 27.3125C184.176 26.8011 184.358 26.3636 184.722 26C185.091 25.6364 185.534 25.4545 186.051 25.4545C186.557 25.4545 186.994 25.6364 187.364 26C187.739 26.3636 187.926 26.8011 187.926 27.3125C187.926 27.6591 187.838 27.9744 187.662 28.2585C187.491 28.5426 187.264 28.7699 186.98 28.9403C186.702 29.1051 186.392 29.1875 186.051 29.1875Z" fill="#18191C"/>
<defs>
<clipPath id="clip0_1_3725">
<rect width="40" height="40" fill="white"/>
</clipPath>
</defs>
</svg>
